#!OML:ASF X:\für Bonn\!DataBase\2005_08_11_Bastian_Final\c3d\Bastian.ASF
:FULLY-SPECIFIED
:DEGREES
32
root -9.14449 16.9283 7.45843 531.729 34.1201 -171.696
lowerback 22.0164 -2.21192 3.82521
upperback 17.8418 1.37928 1.15448
thorax 7.5334 2.53558 -0.884417
lowerneck -10.3674 -14.2475 -26.6792
upperneck -5.89278 -16.789 33.9811
head 6.05761 -7.20454 14.0821
rclavicle 7.8023e-014 -8.0309e-014
rhumerus -16.4754 13.8765 -85.7443
rradius 55.0354
rwrist 6.88748
rhand -14.626 5.66995
rfingers 7.12502
rthumb 11.5254 -23.9932
lclavicle 7.8023e-014 -8.0309e-014
lhumerus -19.7579 -24.936 -270.234
lradius 10.6892
lwrist -343.673
lhand -14.192 -4.63124
lfingers 7.12502
lthumb 11.9439 25.008
rfemur 8.4192 -7.32302 32.2919
rtibia 37.6376
rfoot -22.823 -5.37392
rtoes -6.60317
lfemur -39.8984 -5.25633 -10.8971
ltibia 56.665
lfoot 13.8411 -8.52876
ltoes -37.5625
33
root -9.06778 16.9157 7.37272 531.839 34.27 -171.71
lowerback 21.5029 -2.04544 3.67195
upperback 17.7332 1.47251 1.0285
thorax 7.66207 2.54389 -0.942498
lowerneck -10.2662 -14.237 -26.9628
upperneck -5.67038 -16.8464 34.2157
head 6.1891 -7.2353 14.2346
rclavicle -4.90004e-014 2.78299e-014
rhumerus -16.8509 14.0725 -85.873
rradius 55.3959
rwrist 6.714
rhand -14.6555 5.60568
rfingers 7.12502
rthumb 11.497 -24.059
lclavicle -4.90004e-014 2.78299e-014
lhumerus -20.6406 -24.5215 -270.01
lradius 10.6512
lwrist -343.991
lhand -14.1911 -4.69113
lfingers 7.12502
lthumb 11.9448 24.9481
rfemur 8.84074 -7.46827 32.1869
rtibia 37.451
rfoot -22.931 -5.06162
rtoes -6.85072
lfemur -39.5269 -5.51725 -10.6695
ltibia 55.2147
lfoot 14.3749 -7.76055
ltoes -37.0926
34
root -8.99173 16.9031 7.28635 532.011 34.4312 -171.668
lowerback 20.9485 -1.89395 3.6074
upperback 17.647 1.56714 0.875457
thorax 7.84392 2.56744 -1.07506
lowerneck -10.2348 -14.2545 -27.1473
upperneck -5.45885 -16.9329 34.433
head 6.32727 -7.27282 14.3509
rclavicle 5.46658e-014 -4.11484e-014
rhumerus -17.1513 14.1415 -86.0467
rradius 55.695
rwrist 6.61466
rhand -14.7734 5.64378
rfingers 7.12502
rthumb 11.3833 -24.0272
lclavicle 5.46658e-014 -4.11484e-014
lhumerus -21.4767 -24.5952 -269.748
lradius 10.621
lwrist -343.88
lhand -14.1565 -4.66645
lfingers 7.12502
lthumb 11.9782 24.9708
rfemur 9.23658 -7.57432 32.1483
rtibia 37.2417
rfoot -23.0446 -4.8009
rtoes -7.35445
lfemur -39.1857 -5.74868 -10.3982
ltibia 53.8248
lfoot 14.7611 -7.11418
ltoes -37.3006
35
root -8.91472 16.8907 7.20113 532.19 34.5727 -171.618
lowerback 20.3931 -1.75419 3.49551
upperback 17.5779 1.6473 0.742874
thorax 8.04677 2.58007 -1.15433
lowerneck -10.2529 -14.2673 -27.341
upperneck -5.23756 -17.001 34.6494
head 6.47288 -7.29644 14.473
rclavicle -6.67916e-014 6.34123e-014
rhumerus -17.4272 14.2959 -86.1675
rradius 56.0474
rwrist 6.49291
rhand -14.8999 5.61891
rfingers 7.12502
rthumb 11.2613 -24.0588
lclavicle -6.67916e-014 6.34123e-014
lhumerus -22.2342 -24.394 -269.558
lradius 10.5986
lwrist -344.072
lhand -14.083 -4.57471
lfingers 7.12502
lthumb 12.0491 25.0584
rfemur 9.62546 -7.64602 32.15
rtibia 37.0208
rfoot -23.1481 -4.61526
rtoes -7.70129
lfemur -38.8368 -5.97883 -10.1241
ltibia 52.4761
lfoot 15.0871 -6.49115
ltoes -37.656
36
root -8.8375 16.8785 7.11387 532.371 34.7321 -171.607
lowerback 19.8208 -1.60907 3.33523
upperback 17.5077 1.72872 0.604013
thorax 8.25846 2.58788 -1.21193
lowerneck -10.2876 -14.2772 -27.52
upperneck -5.02406 -17.0586 34.8443
head 6.61144 -7.31389 14.5862
rclavicle 5.1684e-015 -4.77083e-014
rhumerus -17.7047 14.4238 -86.2858
rradius 56.4297
rwrist 6.3937
rhand -15.0301 5.67561
rfingers 7.12502
rthumb 11.1357 -24.0089
lclavicle 5.1684e-015 -4.77083e-014
lhumerus -23.0144 -24.3257 -269.32
lradius 10.6179
lwrist -344.125
lhand -14.0626 -4.42021
lfingers 7.12502
lthumb 12.0688 25.2118
rfemur 10.0086 -7.73552 32.0957
rtibia 36.7797
rfoot -23.2769 -4.40041
rtoes -8.26542
lfemur -38.5038 -6.19411 -9.88898
ltibia 51.1732
lfoot 15.3256 -5.93868
ltoes -38.3047
37
root -8.76149 16.8654 7.02617 532.606 34.8948 -171.534
lowerback 19.2552 -1.4705 3.2402
upperback 17.4273 1.8124 0.479983
thorax 8.45864 2.60189 -1.28964
lowerneck -10.3092 -14.2873 -27.7338
upperneck -4.81178 -17.1194 35.0676
head 6.75782 -7.33392 14.7204
rclavicle -5.40694e-014 4.69132e-014
rhumerus -18.0071 14.5533 -86.385
rradius 56.854
rwrist 6.34997
rhand -15.1527 5.71359
rfingers 7.12502
rthumb 11.0174 -23.9773
lclavicle -5.40694e-014 4.69132e-014
lhumerus -23.7199 -23.8971 -269.213
lradius 10.6516
lwrist -344.515
lhand -13.9069 -4.26121
lfingers 7.12502
lthumb 12.2189 25.3619
rfemur 10.367 -7.78663 32.1093
rtibia 36.5332
rfoot -23.3962 -4.22923
rtoes -8.66759
lfemur -38.2076 -6.39038 -9.60397
ltibia 49.9187
lfoot 15.5625 -5.49195
ltoes -39.0687
38
root -8.68429 16.8515 6.93617 532.843 35.0435 -171.494
lowerback 18.6561 -1.32921 3.08032
upperback 17.3518 1.89239 0.370193
thorax 8.6816 2.6061 -1.31261
lowerneck -10.3527 -14.3006 -27.9174
upperneck -4.5977 -17.1794 35.2356
head 6.89607 -7.35283 14.8243
rclavicle 2.52457e-014 -3.4191e-014
rhumerus -18.2287 14.6562 -86.4471
rradius 57.2015
rwrist 6.35766
rhand -15.2546 5.78664
rfingers 7.12502
rthumb 10.9192 -23.9094
lclavicle 2.52457e-014 -3.4191e-014
lhumerus -24.419 -23.4778 -269.084
lradius 10.7232
lwrist -344.847
lhand -13.7762 -4.07174
lfingers 7.12502
lthumb 12.3448 25.5438
rfemur 10.7144 -7.81239 32.0939
rtibia 36.2886
rfoot -23.5523 -4.02259
rtoes -8.90606
lfemur -37.9336 -6.61209 -9.33879
ltibia 48.7214
lfoot 15.8036 -5.09697
ltoes -39.7839
39
root -8.6074 16.8364 6.84598 533.085 35.1939 -171.419
lowerback 18.0891 -1.20687 2.93114
upperback 17.2909 1.95975 0.273366
thorax 8.90719 2.60713 -1.32517
lowerneck -10.4124 -14.3163 -28.1213
upperneck -4.40966 -17.2315 35.4277
head 7.03441 -7.3661 14.9452
rclavicle 1.98785e-015 2.14687e-014
rhumerus -18.3763 14.7899 -86.4686
rradius 57.5113
rwrist 6.35861
rhand -15.3676 5.91355
rfingers 7.12502
rthumb 10.8102 -23.7883
lclavicle 1.98785e-015 2.14687e-014
lhumerus -25.0039 -22.5701 -269.143
lradius 10.7953
lwrist -345.63
lhand -13.5179 -3.93277
lfingers 7.12502
lthumb 12.5939 25.6676
rfemur 11.0801 -7.83939 32.1111
rtibia 36.0453
rfoot -23.6926 -3.84889
rtoes -9.15842
lfemur -37.6582 -6.86052 -9.00724
ltibia 47.5905
lfoot 16.0913 -4.75252
ltoes -40.3121
